{
  "accessors": [
    {
      "bufferView": 0,
      "componentType": 5125,
      "count": 1500,
      "type": "SCALAR"
    },
    {
      "bufferView": 1,
      "componentType": 5126,
      "count": 449,
      "max": [
        0.404468327760696,
        1.1474928855896,
        0.375374436378479
      ],
      "min": [
        -0.401911914348602,
        0.00153547525405884,
        -0.26362407207489
      ],
      "type": "VEC3"
    },
    {
      "bufferView": 2,
      "componentType": 5126,
      "count": 449,
      "type": "VEC3"
    },
    {
      "bufferView": 3,
      "componentType": 5126,
      "count": 449,
      "type": "VEC4"
    },
    {
      "bufferView": 4,
      "componentType": 5126,
      "count": 449,
      "type": "VEC2"
    }
  ],
  "asset": {
    "generator": "Adobe Substance 3D Painter 12.1.2",
    "version": "2.0"
  },
  "bufferViews": [
    {
      "buffer": 0,
      "byteLength": 6000,
      "target": 34963
    },
    {
      "buffer": 0,
      "byteLength": 5388,
      "byteOffset": 6000,
      "target": 34962
    },
    {
      "buffer": 0,
      "byteLength": 5388,
      "byteOffset": 11388,
      "target": 34962
    },
    {
      "buffer": 0,
      "byteLength": 7184,
      "byteOffset": 16776,
      "target": 34962
    },
    {
      "buffer": 0,
      "byteLength": 3592,
      "byteOffset": 23960,
      "target": 34962
    }
  ],
  "buffers": [
    {
      "byteLength": 27552,
      "uri": "kidtexture.bin"
    }
  ],
  "images": [
    {
      "uri": "Material.002_baseColor.png"
    },
    {
      "uri": "Material.002_occlusionRoughnessMetallic.png"
    },
    {
      "uri": "Material.002_normal.png"
    }
  ],
  "materials": [
    {
      "alphaMode": "OPAQUE",
      "name": "Material.002",
      "normalTexture": {
        "index": 2
      },
      "occlusionTexture": {
        "index": 1
      },
      "pbrMetallicRoughness": {
        "baseColorTexture": {
          "index": 0
        },
        "metallicRoughnessTexture": {
          "index": 1
        }
      }
    }
  ],
  "meshes": [
    {
      "name": "node_low",
      "primitives": [
        {
          "attributes": {
            "NORMAL": 2,
            "POSITION": 1,
            "TANGENT": 3,
            "TEXCOORD_0": 4
          },
          "indices": 0,
          "material": 0,
          "mode": 4
        }
      ]
    }
  ],
  "nodes": [
    {
      "children": [
        1
      ],
      "name": "RootNode",
      "scale": [
        0.00999999977648258,
        0.00999999977648258,
        0.00999999977648258
      ]
    },
    {
      "children": [
        2
      ],
      "name": "node_low",
      "rotation": [
        6.7179421137098e-08,
        0.0,
        0.0,
        1.0
      ],
      "scale": [
        100.0,
        100.000015258789,
        100.000015258789
      ]
    },
    {
      "mesh": 0,
      "name": "node_low"
    }
  ],
  "samplers": [
    {
      "magFilter": 9729,
      "minFilter": 9985,
      "wrapS": 10497,
      "wrapT": 10497
    }
  ],
  "scene": 0,
  "scenes": [
    {
      "name": "Scene",
      "nodes": [
        0
      ]
    }
  ],
  "textures": [
    {
      "sampler": 0,
      "source": 0
    },
    {
      "sampler": 0,
      "source": 1
    },
    {
      "sampler": 0,
      "source": 2
    }
  ]
}