{
  "accessors": [
    {
      "bufferView": 0,
      "componentType": 5125,
      "count": 2694,
      "type": "SCALAR"
    },
    {
      "bufferView": 1,
      "componentType": 5126,
      "count": 671,
      "max": [
        0.461620956659317,
        1.1432569026947,
        0.221652865409851
      ],
      "min": [
        -0.47070649266243,
        0.00206261873245239,
        -0.253338873386383
      ],
      "type": "VEC3"
    },
    {
      "bufferView": 2,
      "componentType": 5126,
      "count": 671,
      "type": "VEC3"
    },
    {
      "bufferView": 3,
      "componentType": 5126,
      "count": 671,
      "type": "VEC4"
    },
    {
      "bufferView": 4,
      "componentType": 5126,
      "count": 671,
      "type": "VEC2"
    }
  ],
  "asset": {
    "generator": "Adobe Substance 3D Painter 12.1.2",
    "version": "2.0"
  },
  "bufferViews": [
    {
      "buffer": 0,
      "byteLength": 10776,
      "target": 34963
    },
    {
      "buffer": 0,
      "byteLength": 8052,
      "byteOffset": 10776,
      "target": 34962
    },
    {
      "buffer": 0,
      "byteLength": 8052,
      "byteOffset": 18828,
      "target": 34962
    },
    {
      "buffer": 0,
      "byteLength": 10736,
      "byteOffset": 26880,
      "target": 34962
    },
    {
      "buffer": 0,
      "byteLength": 5368,
      "byteOffset": 37616,
      "target": 34962
    }
  ],
  "buffers": [
    {
      "byteLength": 42984,
      "uri": "Untitled.bin"
    }
  ],
  "images": [
    {
      "uri": "Material.001_baseColor.png"
    },
    {
      "uri": "Material.001_occlusionRoughnessMetallic.png"
    },
    {
      "uri": "Material.001_normal.png"
    }
  ],
  "materials": [
    {
      "alphaMode": "OPAQUE",
      "name": "Material.001",
      "normalTexture": {
        "index": 2
      },
      "occlusionTexture": {
        "index": 1
      },
      "pbrMetallicRoughness": {
        "baseColorTexture": {
          "index": 0
        },
        "metallicRoughnessTexture": {
          "index": 1
        }
      }
    }
  ],
  "meshes": [
    {
      "name": "node_low",
      "primitives": [
        {
          "attributes": {
            "NORMAL": 2,
            "POSITION": 1,
            "TANGENT": 3,
            "TEXCOORD_0": 4
          },
          "indices": 0,
          "material": 0,
          "mode": 4
        }
      ]
    }
  ],
  "nodes": [
    {
      "children": [
        1
      ],
      "name": "RootNode",
      "scale": [
        0.00999999977648258,
        0.00999999977648258,
        0.00999999977648258
      ]
    },
    {
      "children": [
        2
      ],
      "name": "node_low",
      "rotation": [
        6.7179421137098e-08,
        0.0,
        0.0,
        1.0
      ],
      "scale": [
        100.0,
        100.000015258789,
        100.000015258789
      ]
    },
    {
      "mesh": 0,
      "name": "node_low"
    }
  ],
  "samplers": [
    {
      "magFilter": 9729,
      "minFilter": 9985,
      "wrapS": 10497,
      "wrapT": 10497
    }
  ],
  "scene": 0,
  "scenes": [
    {
      "name": "Scene",
      "nodes": [
        0
      ]
    }
  ],
  "textures": [
    {
      "sampler": 0,
      "source": 0
    },
    {
      "sampler": 0,
      "source": 1
    },
    {
      "sampler": 0,
      "source": 2
    }
  ]
}